{
	"asset":{
		"version":"2.0",
		"generator":"Created using the official Cinema 4D glTF Exporter 1.000x290161"
	},
	"scenes":[{
		"nodes":[0]
	}],
	"nodes":[{
		"name":"J1",
		"translation":[0,
		0,
		-3.706],
		"rotation":[0,
		0,
		0,
		-1],
		"scale":[1,
		1,
		1],
		"children":[1,
		4]
	},
	{
		"name":"Subdivision Surface",
		"translation":[0,
		0,
		3.706],
		"rotation":[0,
		0,
		0,
		-1],
		"scale":[1,
		1,
		1],
		"children":[2]
	},
	{
		"name":"Cube",
		"translation":[0,
		77.501,
		0],
		"rotation":[0,
		0,
		0,
		-1],
		"scale":[1,
		1,
		1],
		"children":[3]
	},
	{
		"name":"Cube",
		"mesh":0,
		"skin":0
	},
	{
		"name":"Character",
		"translation":[0,
		0,
		-3.706],
		"rotation":[0,
		0,
		0,
		-1],
		"scale":[1,
		1,
		1],
		"children":[5]
	},
	{
		"name":"Biped_rig",
		"children":[6]
	},
	{
		"name":"Root_null_jnt",
		"translation":[0,
		74.913,
		2.893],
		"rotation":[-0.707,
		0,
		0,
		-0.707],
		"scale":[1,
		1,
		1],
		"children":[7]
	},
	{
		"name":"Spine_FK_null",
		"translation":[0,
		-0.004,
		0.251],
		"rotation":[0.707,
		0,
		0,
		-0.707],
		"scale":[1,
		1,
		1],
		"children":[8,
		23,
		29,
		35]
	},
	{
		"name":"Hip_FK_00_jnt",
		"translation":[0,
		0,
		-0.007],
		"rotation":[-0.707,
		0,
		0,
		-0.707],
		"scale":[1,
		1,
		1],
		"children":[9]
	},
	{
		"name":"Midd_FK_01_jnt",
		"translation":[0,
		0,
		-15.26],
		"rotation":[0,
		0,
		0,
		-1],
		"scale":[1,
		1,
		1],
		"children":[10]
	},
	{
		"name":"Chest_FK_01_jnt",
		"translation":[0,
		0,
		-15.095],
		"rotation":[0,
		0,
		0,
		1],
		"scale":[1,
		1,
		1],
		"children":[11,
		13,
		18]
	},
	{
		"name":"Neck_FK_02_jnt",
		"translation":[0,
		0,
		-15.768],
		"rotation":[0.058,
		0,
		0,
		0.998],
		"scale":[1,
		1,
		1],
		"children":[12]
	},
	{
		"name":"Spinetip_FK_03_jnt",
		"translation":[0,
		0,
		-11.87],
		"rotation":[0,
		0,
		0,
		1],
		"scale":[1,
		1,
		1]
	},
	{
		"name":"L_IK_Arm_null",
		"translation":[0.506,
		0.007,
		-15.62],
		"rotation":[0.707,
		0,
		0,
		-0.707],
		"scale":[1,
		1,
		1],
		"children":[14]
	},
	{
		"name":"L_IK_Collar_jnt",
		"translation":[0,
		0,
		0],
		"rotation":[-0.177,
		0.658,
		-0.178,
		-0.71],
		"scale":[1,
		1,
		1],
		"children":[15]
	},
	{
		"name":"L_IK_Shoulder_jnt",
		"translation":[0,
		0,
		-11.658],
		"rotation":[-0.564,
		-0.391,
		-0.347,
		0.638],
		"scale":[1,
		1,
		1],
		"children":[16]
	},
	{
		"name":"L_IK_Elbow_jnt",
		"translation":[0,
		0,
		-28.587],
		"rotation":[0.573,
		-0.265,
		-0.001,
		0.776],
		"scale":[1,
		1,
		1],
		"children":[17]
	},
	{
		"name":"L_IK_Hand_jnt",
		"translation":[0,
		0,
		-21.685],
		"rotation":[0.026,
		0,
		0,
		1],
		"scale":[1,
		1,
		1]
	},
	{
		"name":"R_IK_Arm_null",
		"translation":[-0.506,
		0.007,
		-15.62],
		"rotation":[0.707,
		0,
		0,
		-0.707],
		"scale":[1,
		1,
		1],
		"children":[19]
	},
	{
		"name":"R_IK_Collar_jnt",
		"translation":[0,
		0,
		0],
		"rotation":[-0.177,
		-0.658,
		0.178,
		-0.71],
		"scale":[1,
		1,
		1],
		"children":[20]
	},
	{
		"name":"R_IK_Shoulder_jnt",
		"translation":[0,
		0,
		-11.658],
		"rotation":[0.683,
		-0.161,
		-0.482,
		-0.524],
		"scale":[1,
		1,
		1],
		"children":[21]
	},
	{
		"name":"R_IK_Elbow_jnt",
		"translation":[0,
		0,
		-28.587],
		"rotation":[0.712,
		0.331,
		0,
		0.619],
		"scale":[1,
		1,
		1],
		"children":[22]
	},
	{
		"name":"R_IK_Hand_jnt",
		"translation":[0,
		0,
		-21.684],
		"rotation":[0.026,
		0,
		0,
		1],
		"scale":[1,
		1,
		1]
	},
	{
		"name":"L_Leg_null",
		"translation":[9.631,
		0.3,
		-0.015],
		"rotation":[0,
		0,
		0,
		-1],
		"scale":[1,
		1,
		1],
		"children":[24]
	},
	{
		"name":"L_Hip_jnt",
		"translation":[-1.305,
		0.165,
		3.176],
		"rotation":[0,
		0.739,
		0.673,
		0],
		"scale":[1,
		1,
		1],
		"children":[25]
	},
	{
		"name":"L_Knee_jnt",
		"translation":[0,
		0,
		-35.069],
		"rotation":[0.236,
		0,
		0,
		-0.972],
		"scale":[1,
		1,
		1],
		"children":[26]
	},
	{
		"name":"L_Foot_jnt",
		"translation":[0,
		0,
		-43.745],
		"rotation":[0.826,
		0,
		0,
		0.563],
		"scale":[1,
		1,
		1],
		"children":[27]
	},
	{
		"name":"L_Toe_jnt",
		"translation":[0,
		0,
		-11.157],
		"rotation":[0.031,
		0,
		0,
		-1],
		"scale":[1,
		1,
		1],
		"children":[28]
	},
	{
		"name":"L_Toe_End_jnt",
		"translation":[0,
		0,
		-24.024],
		"rotation":[0,
		0,
		0,
		-1],
		"scale":[1,
		1,
		1]
	},
	{
		"name":"R_Leg_null",
		"translation":[-9.631,
		0.3,
		-0.015],
		"rotation":[0,
		0,
		0,
		-1],
		"scale":[1,
		1,
		1],
		"children":[30]
	},
	{
		"name":"R_Hip_jnt",
		"translation":[1.305,
		0.165,
		3.176],
		"rotation":[0,
		-0.829,
		-0.559,
		0],
		"scale":[1,
		1,
		1],
		"children":[31]
	},
	{
		"name":"R_Knee_jnt",
		"translation":[0,
		0,
		-35.069],
		"rotation":[0.283,
		0,
		0,
		-0.959],
		"scale":[1,
		1,
		1],
		"children":[32]
	},
	{
		"name":"R_Foot_jnt",
		"translation":[0,
		0,
		-43.745],
		"rotation":[0.768,
		0,
		0,
		0.641],
		"scale":[1,
		1,
		1],
		"children":[33]
	},
	{
		"name":"R_Toe_jnt",
		"translation":[0,
		0,
		-11.157],
		"rotation":[-0.031,
		0,
		0,
		1],
		"scale":[1,
		1,
		1],
		"children":[34]
	},
	{
		"name":"R_Toe_End_jnt",
		"translation":[0,
		0,
		-24.024],
		"rotation":[0,
		0,
		0,
		-1],
		"scale":[1,
		1,
		1]
	},
	{
		"name":"Head_null",
		"translation":[0,
		57.914,
		1.357],
		"rotation":[-0.058,
		0,
		0,
		-0.998],
		"scale":[1,
		1,
		1],
		"children":[36]
	},
	{
		"name":"Head_00_jnt",
		"translation":[0,
		0,
		0],
		"rotation":[0,
		0.672,
		-0.74,
		0],
		"scale":[1,
		1,
		1],
		"children":[37]
	},
	{
		"name":"Head_01_jnt",
		"translation":[0,
		0,
		-26.739],
		"rotation":[0,
		0,
		0,
		1],
		"scale":[1,
		1,
		1]
	}],
	"meshes":[{
		"primitives":[{
			"attributes":{
				"POSITION":1,
				"NORMAL":2,
				"TEXCOORD_0":3,
				"JOINTS_0":4,
				"WEIGHTS_0":5
			},
			"indices":0,
			"material":0
		}]
	}],
	"skins":[{
		"inverseBindMatrices":6,
		"joints":[12,
		11,
		10,
		9,
		8,
		17,
		14,
		16,
		15,
		20,
		22,
		21,
		19,
		27,
		26,
		25,
		28,
		24,
		33,
		30,
		34,
		32,
		31,
		37,
		36]
	}],
	"accessors":[{
		"bufferView":0,
		"count":77568,
		"type":"SCALAR",
		"componentType":5123,
		"byteOffset":0,
		"min":[0],
		"max":[14506]
	},
	{
		"bufferView":1,
		"count":14507,
		"type":"VEC3",
		"componentType":5126,
		"byteOffset":0,
		"min":[-33.945,
		-84.282,
		-21.29],
		"max":[34.268,
		84.668,
		28.292]
	},
	{
		"bufferView":1,
		"count":14507,
		"type":"VEC3",
		"componentType":5126,
		"byteOffset":12,
		"min":[-1,
		-1,
		-1],
		"max":[1,
		1,
		1]
	},
	{
		"bufferView":1,
		"count":14507,
		"type":"VEC2",
		"componentType":5126,
		"byteOffset":24,
		"min":[0,
		0],
		"max":[1,
		1]
	},
	{
		"bufferView":2,
		"count":14507,
		"type":"VEC4",
		"componentType":5123,
		"byteOffset":0,
		"min":[1,
		0,
		0,
		0],
		"max":[24,
		24,
		24,
		24]
	},
	{
		"bufferView":3,
		"count":14507,
		"type":"VEC4",
		"componentType":5126,
		"byteOffset":0,
		"min":[0.332,
		0,
		0,
		0],
		"max":[1,
		0.5,
		0.329,
		0.111]
	},
	{
		"bufferView":4,
		"count":25,
		"type":"MAT4",
		"componentType":5126,
		"byteOffset":0,
		"min":[-1,
		-0.733,
		-0.872,
		0,
		-0.425,
		-0.374,
		-1,
		0,
		-0.997,
		-1,
		-1,
		0,
		-39.991,
		-37.393,
		-35.635,
		1],
		"max":[1,
		0.485,
		0.872,
		0,
		0.641,
		1,
		0.996,
		0,
		0.997,
		1,
		0.504,
		0,
		31.435,
		77.992,
		81.744,
		1]
	}],
	"bufferViews":[{
		"buffer":0,
		"byteOffset":0,
		"byteLength":155136,
		"target":34963
	},
	{
		"buffer":0,
		"byteOffset":155136,
		"byteLength":464224,
		"target":34962,
		"byteStride":32
	},
	{
		"buffer":0,
		"byteOffset":619360,
		"byteLength":116056,
		"target":34962
	},
	{
		"buffer":0,
		"byteOffset":735416,
		"byteLength":232112,
		"target":34962
	},
	{
		"buffer":1,
		"byteOffset":0,
		"byteLength":1600
	}],
	"materials":[{
		"pbrMetallicRoughness":{
			"baseColorFactor":[1,
			1,
			1,
			1],
			"metallicFactor":1,
			"roughnessFactor":0
		},
		"emissiveFactor":[0,
		0,
		0],
		"alphaMode":"OPAQUE",
		"doubleSided":true,
		"name":"Mat.1"
	}],
	"buffers":[{
		"uri":"data:application/octet-stream;base64,",
		"byteLength":967528
	},
	{
		"uri":"data:application/octet-stream;base64,",
		"byteLength":1600
	}]
}